<svg xmlns="http://www.w3.org/2000/svg" viewBox="0 0 37.22 37.23"><defs><style>.cls-1{fill:#ffd038;}</style></defs><title>Ресурс 43</title><g id="Слой_2" data-name="Слой 2"><g id="Слой_1-2" data-name="Слой 1"><path class="cls-1" d="M32.47,0A.85.85,0,0,0,32,.22L28.2,3.6a.85.85,0,0,0-.28.63V8.11l-.38.38a16.32,16.32,0,1,0,1.2,1.19l.37-.37H33A.85.85,0,0,0,33.63,9L37,5.22a.85.85,0,0,0-.63-1.4h-3v-3A.85.85,0,0,0,32.58,0Zm-.74,2.72V4.66a.85.85,0,0,0,.85.85h1.92L32.61,7.62h-3v-3ZM16.5,5.93a14.75,14.75,0,0,1,9.85,3.75l-3,3a10.76,10.76,0,1,0,1.19,1.2l3-3a14.79,14.79,0,1,1-11-5Zm0,5.92a8.86,8.86,0,0,1,5.64,2l-2.71,2.72a5,5,0,0,0-2.93-1,5.08,5.08,0,1,0,5.08,5.08,5,5,0,0,0-1-2.93l2.72-2.72a8.88,8.88,0,1,1-6.85-3.23Zm0,5.5a3.35,3.35,0,0,1,1.71.48l-2.3,2.3a.85.85,0,1,0,1.17,1.23l0,0L19.41,19a3.38,3.38,0,1,1-2.91-1.67Z"/></g></g></svg>