<svg xmlns="http://www.w3.org/2000/svg" viewBox="0 0 27.83 33.33"><defs><style>.cls-1{fill:#ffd038;}</style></defs><title>Ресурс 40</title><g id="Слой_2" data-name="Слой 2"><g id="Слой_1-2" data-name="Слой 1"><path class="cls-1" d="M9.57,0a.8.8,0,0,0-.35.13C9,.28,9,.53,9,.8V24.5a.79.79,0,1,0,1.59,0V2L25.12,8l-13.82,6a.8.8,0,0,0,.64,1.45l15.4-6.81a.79.79,0,0,0,0-1.45L9.92.05A.68.68,0,0,0,9.57,0Zm6.2,20.28a.8.8,0,0,0-.36,1.52c2.26,1,3.62,2.7,3.62,4.43,0,3-3.92,5.5-8.73,5.5s-8.71-2.47-8.71-5.5C1.59,24.56,2.86,23,5,21.9a.8.8,0,0,0,.35-1.07.78.78,0,0,0-1.06-.35C1.59,21.8,0,23.94,0,26.23c0,3.9,4.61,7.09,10.3,7.09s10.31-3.19,10.31-7.09c0-2.37-1.69-4.56-4.53-5.87A.85.85,0,0,0,15.77,20.28ZM4.07,23.71a.79.79,0,0,0-.79.79c0,2.76,3.08,4.93,7,4.93s7-2.17,7-4.93a.79.79,0,1,0-1.59,0c0,1.8-2.5,3.34-5.45,3.34S4.86,26.3,4.86,24.5A.79.79,0,0,0,4.07,23.71Z"/></g></g></svg>