<svg xmlns="http://www.w3.org/2000/svg" viewBox="0 0 42.3 32.16"><defs><style>.cls-1{fill:#ffd038;}</style></defs><title>Ресурс 39</title><g id="Слой_2" data-name="Слой 2"><g id="Слой_1-2" data-name="Слой 1"><path class="cls-1" d="M37.89,3.06H36.82V0H32.4V3.06H31.34V0H26.92V8.44l1.41,2H24.5v2H23.43v-2H19v2H17.95v-2H14.12l1.41-2V0H11.11V3.06H10V0H5.63V3.06H4.56V0H0V8.44l2.13,3.15V24.74L0,27.89v4.27H15.38V25.71a5.77,5.77,0,1,1,11.55,0v6.35H42.3V27.8l-2.13-3.15v-13L42.3,8.44V0H37.89ZM39.53,1.7H40.6V7.91l-2.13,3.15V25.22l2.13,3.15v2h-12V25.71a7.47,7.47,0,1,0-14.94,0v4.71H1.7v-2l2.13-3.15V11.06L1.7,7.91V1.7H2.77V4.75H7.18V1.7H8.25V4.75h4.41V1.7h1.07V7.91l-2.13,3.15v3.1h3.54v-2H16.2v2h4.41v-2h1.07v2H26.1v-2h1.07v2h3.54v-3.1L28.57,7.91V1.7h1.07V4.75h4.41V1.7h1.07V4.75h4.41Zm-26.1,9.65v1.16h-.15v-.92Zm15.43,1.12V11.3l.15.24v.92Z"/></g></g></svg>