<svg xmlns="http://www.w3.org/2000/svg" viewBox="0 0 37.17 37.17"><defs><style>.cls-1{fill:#ffd038;}</style></defs><title>Ресурс 41</title><g id="Слой_2" data-name="Слой 2"><g id="Слой_1-2" data-name="Слой 1"><path class="cls-1" d="M6.78,19.28a3.91,3.91,0,1,0,3.91,3.91A3.92,3.92,0,0,0,6.78,19.28Zm0,6a2,2,0,1,1,2-2A2,2,0,0,1,6.78,25.23Z"/><path class="cls-1" d="M18.57,0a3.91,3.91,0,1,0,3.91,3.91A3.91,3.91,0,0,0,18.57,0Zm0,5.95a2,2,0,1,1,2-2A2,2,0,0,1,18.57,5.95Z"/><path class="cls-1" d="M34.8,29.17a15.08,15.08,0,0,0-8.89,0,3.32,3.32,0,0,0-2.32,2.65v.09H19.51v-14h4.93a.94.94,0,0,0,.93-.94V13.07A3.3,3.3,0,0,0,23,9.89a15.08,15.08,0,0,0-8.89,0,3.31,3.31,0,0,0-2.36,3.18v3.88a.94.94,0,0,0,.94.94h4.93v14H13.57l0-.08a3.3,3.3,0,0,0-2.31-2.65,15.08,15.08,0,0,0-8.89,0A3.28,3.28,0,0,0,0,32.34v3.89a.94.94,0,0,0,.93.94H12.67a.94.94,0,0,0,.93-.94V33.77h10v2.46a.94.94,0,0,0,.94.94H36.23a.94.94,0,0,0,.94-.94V32.34A3.36,3.36,0,0,0,34.8,29.17ZM11.71,35.3H1.86v-3a1.43,1.43,0,0,1,1-1.38,13.15,13.15,0,0,1,7.79,0,1.43,1.43,0,0,1,1,1.38ZM13.64,16v-3a1.45,1.45,0,0,1,1-1.38,13.18,13.18,0,0,1,7.8,0,1.45,1.45,0,0,1,1,1.38v3ZM35.28,35.3H25.42v-3a1.43,1.43,0,0,1,1-1.38,13.15,13.15,0,0,1,7.79,0,1.44,1.44,0,0,1,1,1.38Z"/><path class="cls-1" d="M30.34,19.28a3.91,3.91,0,1,0,3.91,3.91A3.91,3.91,0,0,0,30.34,19.28Zm0,6a2,2,0,1,1,2-2A2,2,0,0,1,30.34,25.23Z"/></g></g></svg>