<svg xmlns="http://www.w3.org/2000/svg" viewBox="0 0 37.33 37.33"><defs><style>.cls-1{fill:#ffd038;}</style></defs><title>Ресурс 42</title><g id="Слой_2" data-name="Слой 2"><g id="Слой_1-2" data-name="Слой 1"><path class="cls-1" d="M18.67,37.33a7,7,0,1,1,7-7A7,7,0,0,1,18.67,37.33Zm0-12.44a5.44,5.44,0,1,0,5.44,5.44A5.45,5.45,0,0,0,18.67,24.89Z"/><path class="cls-1" d="M7,14a7,7,0,1,1,7-7A7,7,0,0,1,7,14ZM7,1.56A5.44,5.44,0,1,0,12.44,7,5.45,5.45,0,0,0,7,1.56Z"/><path class="cls-1" d="M30.33,14a7,7,0,1,1,7-7A7,7,0,0,1,30.33,14Zm0-12.44A5.44,5.44,0,1,0,35.78,7,5.45,5.45,0,0,0,30.33,1.56Z"/><path class="cls-1" d="M30.33,10.89A3.89,3.89,0,1,1,34.22,7,3.89,3.89,0,0,1,30.33,10.89Zm0-6.22A2.33,2.33,0,1,0,32.67,7,2.34,2.34,0,0,0,30.33,4.67Z"/><path class="cls-1" d="M18.67,34.22a3.89,3.89,0,1,1,3.89-3.89A3.89,3.89,0,0,1,18.67,34.22Zm0-6.22A2.33,2.33,0,1,0,21,30.33,2.34,2.34,0,0,0,18.67,28Z"/><path class="cls-1" d="M7,10.89A3.89,3.89,0,1,1,10.89,7,3.89,3.89,0,0,1,7,10.89ZM7,4.67A2.33,2.33,0,1,0,9.33,7,2.34,2.34,0,0,0,7,4.67Z"/><rect class="cls-1" x="13.22" y="6.22" width="10.89" height="1.56"/><rect class="cls-1" x="17.58" y="17.95" width="13.78" height="1.56" transform="translate(-3.22 32.24) rotate(-63.43)"/><rect class="cls-1" x="12.02" y="11.72" width="1.56" height="13.77" transform="translate(-6.97 7.69) rotate(-26.56)"/></g></g></svg>