<svg xmlns="http://www.w3.org/2000/svg" viewBox="0 0 22.1 31"><defs><style>.cls-1{fill:#ffd038;}</style></defs><title>Ресурс 44</title><g id="Слой_2" data-name="Слой 2"><g id="Слой_1-2" data-name="Слой 1"><path class="cls-1" d="M11.05,0a11,11,0,0,0-6.2,20.2,4.33,4.33,0,0,1,.55,1.62,1.09,1.09,0,1,0,2.15-.34,6.18,6.18,0,0,0-1-2.71,1.05,1.05,0,0,0-.29-.27,8.88,8.88,0,1,1,13.7-7.44,10.21,10.21,0,0,1-4.05,7.58,1.13,1.13,0,0,0-.25.26,6.84,6.84,0,0,0-1.21,2.53,1.09,1.09,0,0,0,.84,1.29l.22,0a1.09,1.09,0,0,0,1.06-.86,4.43,4.43,0,0,1,.78-1.61,12.38,12.38,0,0,0,4.78-9.21A11.06,11.06,0,0,0,11.05,0Z"/><path class="cls-1" d="M5.47,25.92A1.09,1.09,0,0,0,6.56,27h9.39a1.09,1.09,0,1,0,0-2.18H11.56a4.63,4.63,0,0,0-.53,0H6.56A1.09,1.09,0,0,0,5.47,25.92Z"/><path class="cls-1" d="M15.71,29.91a1.09,1.09,0,0,0-1.09-1.09H11.51a2.63,2.63,0,0,0-.46,0H7.88a1.09,1.09,0,1,0,0,2.18h6.74A1.09,1.09,0,0,0,15.71,29.91Z"/></g></g></svg>