<svg xmlns="http://www.w3.org/2000/svg" viewBox="0 0 41.7 30.23">
    <defs>
        <style>
            <!-- .cls-1 {
                fill: #323232;
            }

            .cls-2 {
                fill: #ffd038;
            } -->
        </style>
    </defs>
    <title>Ресурс 16</title>
    <g id="Слой_2" data-name="Слой 2">
        <g id="Слой_1-2" data-name="Слой 1">
            <path class="cls-1" d="M34.16,0l0,0h.08Z" />
            <path class="cls-2" d="M29.28,30.23h0v-.06ZM3.33,6v.07l0-.06h0Z" />
            <rect class="cls-2" x="11.48" y="11.11" width="9.5" height="2" />
            <polygon class="cls-2" points="3.36 5.99 3.33 6.05 3.33 6.01 3.36 5.99" />
            <path class="cls-2" d="M36.18,2l-2-2h-.08L12.25.26,9.33.28h0l-2.11,2L3.36,6h0l0,.06L.76,11.2,0,12.74l1.79.89,1.54-3.09V30.23h26l0-.06,4.22-4.89,2-2.32V13.64L41.7,7.53Zm-26,.26L32,2.06,27.92,6H6.25Zm-4.8,26V8h22V28.23Zm28.22-6-4.22,4.89V9.4l4.23,4.25Zm1-10.4L29.76,7l4.37-4.2,4.74,4.73Z"
            />
        </g>
    </g>
</svg>