<svg xmlns="http://www.w3.org/2000/svg" viewBox="0 0 33.79 37.93"><defs><style>.cls-1{fill:#ffd038;}</style></defs><title>Ресурс 15</title><g id="Слой_2" data-name="Слой 2"><g id="Слой_1-2" data-name="Слой 1"><path class="cls-1" d="M16.75,0a6.43,6.43,0,1,0,6.44,6.43A6.44,6.44,0,0,0,16.75,0Zm0,10.87a4.44,4.44,0,1,1,4.44-4.44A4.44,4.44,0,0,1,16.75,10.87Z"/><path class="cls-1" d="M32.45,23.16,26.36,16l-.52-.61a4,4,0,0,0-2.24-1.31,6.3,6.3,0,0,0-.78-.08H11c-.19,0-.69.06-.75.07A4,4,0,0,0,8,15.4l-.51.6-6.1,7.16a5.66,5.66,0,0,0,.65,8l3.87,3.31a2.63,2.63,0,0,0,1.67.6,2.51,2.51,0,0,0,1.22-.31L9,37.93h2l-1-14A.94.94,0,0,0,9,23a1.06,1.06,0,0,0-.53.15L6.29,24.88A2.49,2.49,0,0,0,6,28.4L8.5,31.27l.06.86-.59.7a.57.57,0,0,1-.81.07L3.28,29.61a3.66,3.66,0,0,1-.41-5.15l6-7.06A4,4,0,0,1,11.61,16l5.12,7.14L22.15,16a3.94,3.94,0,0,1,2.76,1.39l6,7.06a3.66,3.66,0,0,1-.41,5.15L26.63,32.9a.56.56,0,0,1-.8-.07L25.14,32l.06-.77,2.15-1.87a2.48,2.48,0,0,0,.26-3.51l-2.34-2.37a.93.93,0,0,0-1.29,0,1.19,1.19,0,0,0-.28.65l-1,13.78h2L25,34.68a2.68,2.68,0,0,0,1.31.35,2.61,2.61,0,0,0,1.67-.6l3.88-3.31A5.66,5.66,0,0,0,32.45,23.16Zm-24.91,4a.52.52,0,0,1,0-.72l.53-.45.14,2Zm9.25-7.27L14.09,16h5.55Zm8.75,6.68.55.64a.49.49,0,0,1,.12.37.45.45,0,0,1-.17.34l-.64.56Z"/></g></g></svg>