<svg xmlns="http://www.w3.org/2000/svg" viewBox="0 0 25 25">
      <path class="cls-1" d="M13,23.71" />
      <path class="cls-1" d="M18.41,0H6.59A6.59,6.59,0,0,0,0,6.59V18.41A6.59,6.59,0,0,0,6.59,25H18.41A6.6,6.6,0,0,0,25,18.41V6.59A6.59,6.59,0,0,0,18.41,0ZM13,23.71h0V13.19H11.44V11.36l1.54,0,0-2.91v0a2.58,2.58,0,0,1,.62-1.74,3.31,3.31,0,0,1,2.53-.86,6.25,6.25,0,0,1,2.3.39V7.48H17.12a1.73,1.73,0,0,0-1.3.53,1.83,1.83,0,0,0-.45,1.24v2.16h2.86l-.15,1.7H15.34L15.4,23.7m8.31-5.29a5.3,5.3,0,0,1-5.3,5.3H16.69l-.06-9.31h2.62l.38-4.27h-3V9.22a.52.52,0,0,1,.11-.34.51.51,0,0,1,.36-.11h2.63V5.47l-.31-.19a6.63,6.63,0,0,0-3.28-.72A4.52,4.52,0,0,0,12.7,5.82a3.86,3.86,0,0,0-1,2.68l0,1.57-1.55,0,0,4.44h1.57v9.23H6.59a5.3,5.3,0,0,1-5.3-5.3V6.59a5.3,5.3,0,0,1,5.3-5.3H18.41a5.3,5.3,0,0,1,5.3,5.3Z"
      />
</svg>