<svg xmlns="http://www.w3.org/2000/svg" viewBox="0 0 25 25">
  <defs>
    <style>
      .cls-1 {
        fill: #fff;
      }
    </style>
  </defs>
  <title>Ресурс 22</title>
  <g id="Слой_2" data-name="Слой 2">
    <g id="Слой_1-2" data-name="Слой 1">
      <path class="cls-1" d="M18.42,25H6.59A6.59,6.59,0,0,1,0,18.42V6.59A6.59,6.59,0,0,1,6.59,0H18.42A6.59,6.59,0,0,1,25,6.59V18.42A6.59,6.59,0,0,1,18.42,25ZM6.59,1.29a5.3,5.3,0,0,0-5.3,5.3V18.42a5.3,5.3,0,0,0,5.3,5.3H18.42a5.3,5.3,0,0,0,5.3-5.3V6.59a5.3,5.3,0,0,0-5.3-5.3Z"
      />
      <path class="cls-1" d="M12.5,19.14a6.64,6.64,0,1,1,6.64-6.64A6.64,6.64,0,0,1,12.5,19.14Zm0-12a5.35,5.35,0,1,0,5.35,5.35A5.35,5.35,0,0,0,12.5,7.15Z"
      />
      <circle class="cls-1" cx="19.2" cy="5.77" r="1.01" />
    </g>
  </g>
</svg>