<svg xmlns="http://www.w3.org/2000/svg" viewBox="0 0 25 25">
  <path class="cls-1" d="M18.41,25H6.59A6.59,6.59,0,0,1,0,18.41V6.59A6.59,6.59,0,0,1,6.59,0H18.41A6.59,6.59,0,0,1,25,6.59V18.41A6.59,6.59,0,0,1,18.41,25ZM6.59,1.29a5.3,5.3,0,0,0-5.3,5.3V18.41a5.3,5.3,0,0,0,5.3,5.3H18.41a5.3,5.3,0,0,0,5.3-5.3V6.59a5.3,5.3,0,0,0-5.3-5.3Z"
  />
  <path class="cls-1" d="M16.56,16.51a9.85,9.85,0,0,0,1-.55,2.3,2.3,0,0,0,1-1.21,1.63,1.63,0,0,0-.17-1.4,1.73,1.73,0,0,0-2.53-.65,6.21,6.21,0,0,1-6.74,0,1.86,1.86,0,0,0-1.49-.19,1.68,1.68,0,0,0-1,.9,1.79,1.79,0,0,0,.75,2.52c.48.28,1,.53,1.51.79l.69.35L9,17.58c-.46.43-.9.84-1.33,1.27C6.14,20.36,6.52,21.4,7.11,22a1.64,1.64,0,0,0,1.19.54h0a3,3,0,0,0,2-1.09c.46-.47.89-1,1.39-1.54l.73-.84.89,1c.6.67,1.13,1.24,1.69,1.79a2.22,2.22,0,0,0,1.56.65A1.78,1.78,0,0,0,17.84,22a2,2,0,0,0-.14-2.81c-.5-.52-1-1-1.58-1.53l-.7-.65.38-.16Zm-5,.28.27-.25-.1,0-1.09-.41a15.56,15.56,0,0,1-2.19-.92c-.48-.27-.77-.55-.84-.82a.52.52,0,0,1,.09-.44.54.54,0,0,1,.48-.26A2.14,2.14,0,0,1,9,14a7.11,7.11,0,0,0,6.94,0c.52-.26,1.08-.47,1.36,0a.53.53,0,0,1,.08.44c-.1.39-.67.71-.85.81a14.34,14.34,0,0,1-2.13.89l-1.07.4-.09,0,.07.07c1.31,1.28,2.48,2.44,3.36,3.32a1.06,1.06,0,0,1,.39,1,.53.53,0,0,1-.39.38,1.1,1.1,0,0,1-1-.38c-.71-.71-1.43-1.45-2.18-2.23l-1-1.06,0,0-.64.69c-.9,1-1.75,1.87-2.62,2.73-.44.44-.89.39-1.12.16s-.28-.68.16-1.11C9.29,18.92,10.38,17.88,11.54,16.79Z"
  />
  <path class="cls-1" d="M12.5,10.38a2.75,2.75,0,1,1,2.75-2.75A2.75,2.75,0,0,1,12.5,10.38Zm0-4.2A1.46,1.46,0,1,0,14,7.63,1.46,1.46,0,0,0,12.5,6.18Z"
  />
  <path class="cls-1" d="M12.5,12.82a5.18,5.18,0,1,1,5.18-5.18A5.19,5.19,0,0,1,12.5,12.82Zm0-9.08a3.89,3.89,0,1,0,3.89,3.89A3.9,3.9,0,0,0,12.5,3.74Z"
  />
</svg>