<svg xmlns="http://www.w3.org/2000/svg" viewBox="0 0 37.49 28.09"><defs><style>.cls-1{fill:#ffd038;}</style></defs><title>Ресурс 36</title><g id="Слой_2" data-name="Слой 2"><g id="Слой_1-2" data-name="Слой 1"><path class="cls-1" d="M9.37,23.85c0,.47,0,.8,0,1.13a1,1,0,0,1-1,1Q6.76,26,5.2,26a1,1,0,1,1,0-2.07c.68,0,1.35,0,2.05,0V13.57H2.08v.49q0,5.4,0,10.8a1,1,0,0,1-1,1.17A1,1,0,0,1,0,25.11a3.19,3.19,0,0,1,0-.35q0-6,0-12c0-.93.36-1.29,1.28-1.29H8c.82,0,1.06.16,1.37,1,1-.43,1.92-.83,2.87-1.28a1.64,1.64,0,0,1,1.41,0c4.36,1.73,8.74,3.42,13.09,5.16a10.53,10.53,0,0,1,1.62,1L31.93,16,34,15.25a2.6,2.6,0,0,1,3.22,1.33,2.54,2.54,0,0,1-1,3.33q-6.88,4-13.78,8a1.27,1.27,0,0,1-1.16,0q-5.23-1.91-10.46-3.8A12.36,12.36,0,0,0,9.37,23.85Zm0-2.1a12.57,12.57,0,0,1,1.88.36c3.4,1.21,6.78,2.45,10.18,3.67a.85.85,0,0,0,.63,0Q28.52,22,35,18.25c.32-.18.57-.39.37-.79s-.5-.3-.82-.19c-1.9.7-3.8,1.39-5.69,2.1a.91.91,0,0,0-.43.42A2.58,2.58,0,0,1,26,21.34c-1.66,0-3.32,0-5,0a1.91,1.91,0,0,1-.67-.13l-4.95-2a1.05,1.05,0,1,1,.8-1.93l4.54,1.81a1.43,1.43,0,0,0,.49.13c1.59,0,3.18,0,4.77,0a.77.77,0,0,0,.54-.38c.14-.28-.06-.5-.32-.61s-.59-.23-.89-.34q-6-2.34-11.93-4.68a.94.94,0,0,0-.64,0c-1,.42-2,.89-3,1.31a.49.49,0,0,0-.36.54c0,2.13,0,4.25,0,6.38Z"/><path class="cls-1" d="M27.59,13.53a6.77,6.77,0,1,1,6.77-6.76A6.79,6.79,0,0,1,27.59,13.53Zm0-2.08a4.68,4.68,0,1,0-4.7-4.67A4.68,4.68,0,0,0,27.61,11.45Z"/></g></g></svg>