<svg xmlns="http://www.w3.org/2000/svg" viewBox="0 0 28.38 35.24"><defs><style>.cls-1{fill:#ffd038;}</style></defs><title>Ресурс 35</title><g id="Слой_2" data-name="Слой 2"><g id="Слой_1-2" data-name="Слой 1"><path class="cls-1" d="M21.47,6.36h3.32a1,1,0,0,1,1.16,1.07q.68,7.41,1.36,14.82.53,5.85,1.06,11.69c.08.89-.3,1.3-1.18,1.3H5.09a1.81,1.81,0,0,1-.48,0,1,1,0,0,1-.69-1,1,1,0,0,1,.87-.88,3.88,3.88,0,0,1,.41,0H26.33L24.06,8.35H21.53c0,.26,0,.52,0,.77,0,1.17,0,2.34,0,3.51a1,1,0,1,1-2,0c0-1.41,0-2.83,0-4.27H8.81c0,.14,0,.28,0,.43q0,1.9,0,3.79c0,.71-.38,1.14-1,1.14s-1-.44-1-1.16q0-1.9,0-3.79c0-.13,0-.27,0-.42H4.33c-.08.89-.17,1.79-.25,2.69l-.79,8.61-.68,7.47Q2.28,30.72,2,34.34a1,1,0,0,1-1.06.9,1,1,0,0,1-.89-1c.1-1.34.23-2.68.35-4q.35-3.86.7-7.71l.78-8.56q.3-3.27.6-6.54a1,1,0,0,1,1.12-1H6.93a7.54,7.54,0,0,1,3.34-5.19A7,7,0,0,1,14.56,0,7.47,7.47,0,0,1,21.47,6.36Zm-2,0A5.32,5.32,0,0,0,13.93,2C11.51,2.05,9,4.23,9,6.35Z"/><path class="cls-1" d="M15.17,21.54h4.32a1,1,0,1,1,0,2H15.17c0,.17,0,.32,0,.46,0,1.28,0,2.55,0,3.83a1,1,0,1,1-2,0c0-1.28,0-2.55,0-3.83,0-.15,0-.29,0-.48H11.76c-.58,0-1.17,0-1.75,0-2.08.09-2.19-.27-2.19-1s.08-1.08,2.21-1c1,0,2.09,0,3.19,0,0-.17,0-.31,0-.46q0-1.92,0-3.83a1,1,0,1,1,2,0C15.17,18.66,15.17,20.07,15.17,21.54Z"/></g></g></svg>