<svg xmlns="http://www.w3.org/2000/svg" viewBox="0 0 31.75 36.86"><defs><style>.cls-1{fill:#ffd038;}</style></defs><title>Ресурс 38</title><g id="Слой_2" data-name="Слой 2"><g id="Слой_1-2" data-name="Слой 1"><path class="cls-1" d="M28.13,34.81V20H3.59v.49q0,7.59,0,15.18c0,.73-.37,1.18-1,1.2A1,1,0,0,1,1.55,36a1.42,1.42,0,0,1,0-.17q0-8.4,0-16.8a1.34,1.34,0,0,1,.28-.77c1.48-1.84,3-3.66,4.47-5.48a1.16,1.16,0,0,1,1-.44H24.46a1.2,1.2,0,0,1,1,.47c1.47,1.81,3,3.6,4.42,5.42a1.54,1.54,0,0,1,.32.89q0,8.31,0,16.63A1,1,0,0,1,29,36.86H6.78a1,1,0,1,1,0-2H28.13ZM27,17.9c-1-1.18-1.88-2.31-2.8-3.42a.53.53,0,0,0-.37-.13H7.93a.68.68,0,0,0-.45.22c-.56.66-1.1,1.34-1.65,2L4.75,17.9Z"/><path class="cls-1" d="M15.88,26.62h-3a2.56,2.56,0,1,1,0-5.11h6.05a2.56,2.56,0,1,1,0,5.11Zm0-2h3c.43,0,.64-.18.63-.52s-.22-.5-.65-.5H12.93c-.42,0-.64.18-.63.52s.22.5.65.51Z"/><path class="cls-1" d="M16.9,3.61c0,.81,0,1.62,0,2.43a1,1,0,1,1-2,0q0-2.45,0-4.9a1,1,0,1,1,2,0C16.9,2,16.9,2.78,16.9,3.61Z"/><path class="cls-1" d="M27.26,11.8a1.09,1.09,0,0,1-1.07-.61,1,1,0,0,1,.2-1.14c.47-.49,1-1,1.44-1.45l2.08-2.08A1,1,0,1,1,31.35,8c-1.14,1.15-2.28,2.3-3.44,3.42A3,3,0,0,1,27.26,11.8Z"/><path class="cls-1" d="M5.65,10.58A1.08,1.08,0,0,1,5,11.69a1,1,0,0,1-1.14-.22l-2-2L.37,8A1,1,0,0,1,.29,6.44a1,1,0,0,1,1.52.06C3,7.65,4.13,8.8,5.27,10A2.74,2.74,0,0,1,5.65,10.58Z"/><path class="cls-1" d="M22.23,8.71c-.89,0-1.44-.68-1.19-1.31.51-1.29,1.07-2.56,1.64-3.82a1,1,0,0,1,1.85.8C24,5.66,23.47,6.94,22.88,8.19,22.75,8.46,22.36,8.61,22.23,8.71Z"/><path class="cls-1" d="M7.17,4.16a1,1,0,0,1,.78-1.07,1,1,0,0,1,1.17.56c.33.72.63,1.45.94,2.18.21.48.42,1,.61,1.45a1,1,0,0,1-.54,1.35,1,1,0,0,1-1.34-.55c-.53-1.19-1-2.39-1.54-3.59A1.79,1.79,0,0,1,7.17,4.16Z"/></g></g></svg>