<svg xmlns="http://www.w3.org/2000/svg" viewBox="0 0 28.92 37.17"><defs><style>.cls-1{fill:#ffd038;}</style></defs><title>Ресурс 37</title><g id="Слой_2" data-name="Слой 2"><g id="Слой_1-2" data-name="Слой 1"><path class="cls-1" d="M26.84,22.72V7.78H2.07v.52q0,7.66,0,15.31a1,1,0,0,1-1,1.18A1,1,0,0,1,0,23.85c0-.13,0-.26,0-.39Q0,15.23,0,7A1.72,1.72,0,0,1,.42,5.82Q2.6,3.19,4.75.53A1.31,1.31,0,0,1,5.86,0H23.06a1.32,1.32,0,0,1,1.11.53c1.46,1.8,2.95,3.59,4.4,5.4a1.62,1.62,0,0,1,.33.93c0,5.56,0,11.13,0,16.69,0,.84-.39,1.23-1.24,1.23H5.05a1,1,0,0,1,0-2.05c.14,0,.29,0,.43,0H26.84Zm-1.15-17c-1-1.21-1.92-2.35-2.86-3.48a.62.62,0,0,0-.42-.12q-7.94,0-15.87,0A.84.84,0,0,0,6,2.36c-.83,1-1.64,2-2.46,3-.07.09-.13.19-.22.32Z"/><path class="cls-1" d="M14.5,9.3h3a2.58,2.58,0,1,1,0,5.16H11.39a2.58,2.58,0,1,1,0-5.16Zm-.07,3.1h3c.45,0,.69-.19.67-.53s-.3-.5-.66-.5H11.52c-.46,0-.69.19-.67.53s.3.5.66.5Z"/><path class="cls-1" d="M13.43,33.61c0-.22,0-.36,0-.5q0-2.54,0-5.07c0-.75.39-1.2,1-1.2s1,.46,1,1.22c0,1.82,0,3.64,0,5.52a3.57,3.57,0,0,0,.29-.23l2-2a1,1,0,1,1,1.46,1.46l-4,4a1,1,0,0,1-1.62,0l-4-4a1,1,0,1,1,1.45-1.46c.65.64,1.3,1.3,1.95,1.94Z"/></g></g></svg>