<svg xmlns="http://www.w3.org/2000/svg" viewBox="0 0 18 42.52"><defs><style>.cls-1{fill:#ffd038;}</style></defs><title>Ресурс 14</title><g id="Слой_2" data-name="Слой 2"><g id="Слой_1-2" data-name="Слой 1"><path class="cls-1" d="M9,0a5.71,5.71,0,1,0,5.71,5.71A5.71,5.71,0,0,0,9,0ZM9,9.42a3.71,3.71,0,1,1,3.71-3.71A3.72,3.72,0,0,1,9,9.42Z"/><path class="cls-1" d="M10,39.26a.13.13,0,0,0,0,.06V39.2A.13.13,0,0,0,10,39.26Zm-4.52,0v.08h0A.19.19,0,0,1,5.48,39.26Z"/><path class="cls-1" d="M8,39.2v.12a.18.18,0,0,0,0-.12Zm4.51.14h0v-.08A.19.19,0,0,1,12.51,39.34Z"/><path class="cls-1" d="M8,39.26a.13.13,0,0,1,0,.06V39.2A.13.13,0,0,1,8,39.26Z"/><path class="cls-1" d="M16.53,13.1a3.52,3.52,0,0,0-.32-.21,3.63,3.63,0,0,0-1.88-.52H3.48A3.67,3.67,0,0,0,0,16V26.79a3.67,3.67,0,0,0,3.48,3.66v8.81a3.28,3.28,0,0,0,3.26,3.26A3.12,3.12,0,0,0,8,42.26a3.1,3.1,0,0,0,1-.66,3,3,0,0,0,1,.67,3.27,3.27,0,0,0,4.51-3V30.45h0a3.61,3.61,0,0,0,2-.73A3.66,3.66,0,0,0,18,26.79V16A3.68,3.68,0,0,0,16.53,13.1ZM16,26.79a1.66,1.66,0,0,1-1.47,1.65h0v-10h-2V39.34h0a1.25,1.25,0,0,1-2.5,0v0a.18.18,0,0,1,0-.12V28.47H8V39.2a.18.18,0,0,1,0,.12v0a1.26,1.26,0,0,1-2.51,0h0V18.41h-2v10A1.66,1.66,0,0,1,2,26.79V16a1.66,1.66,0,0,1,1.48-1.65.65.65,0,0,1,.2,0H14.33A1.67,1.67,0,0,1,16,16Z"/><path class="cls-1" d="M10,39.2v.12a.18.18,0,0,1,0-.12Z"/></g></g></svg>