<svg xmlns="http://www.w3.org/2000/svg" viewBox="0 0 38.97 33.91"><defs><style>.cls-1{fill:#ffd038;}</style></defs><title>Ресурс 17</title><g id="Слой_2" data-name="Слой 2"><g id="Слой_1-2" data-name="Слой 1"><path class="cls-1" d="M11,0a5.54,5.54,0,1,0,5.55,5.54A5.55,5.55,0,0,0,11,0Zm0,9.18a3.64,3.64,0,1,1,3.64-3.64A3.64,3.64,0,0,1,11,9.18Z"/><path class="cls-1" d="M28,0a5.54,5.54,0,1,0,5.55,5.54A5.55,5.55,0,0,0,28,0Zm0,9.18a3.64,3.64,0,1,1,3.64-3.64A3.64,3.64,0,0,1,28,9.21Z"/><path class="cls-1" d="M38.9,27.15,37,16a5.44,5.44,0,0,0-6.27-4.44L28.22,12a5.18,5.18,0,0,0-4.35,4l-.64,5.09a.87.87,0,0,1-.58.71l-3.14,1-3.29-1a.62.62,0,0,1-.45-.56h0c-.14-1.26-.51-4.63-.67-5.2a5.41,5.41,0,0,0-4.35-4l-2.51-.43A5.42,5.42,0,0,0,2,16L.08,27.14A5.44,5.44,0,0,0,4.53,33.4L7,33.82a5,5,0,0,0,.93.09,5.4,5.4,0,0,0,4-1.74,5.82,5.82,0,0,0,1.42-3l.34-2,3.52,1.1,1.47.46a2.75,2.75,0,0,0,1.63,0l4.5-1.41a.43.43,0,0,1,.55.33l.3,1.75A5.41,5.41,0,0,0,31,33.91a6.26,6.26,0,0,0,.92-.07l2.51-.43A5.45,5.45,0,0,0,38.9,27.15ZM22.41,26a2.79,2.79,0,0,0-.58-2l1.84-.57a2,2,0,0,0,1.4-1.72l.4-3.76a13.53,13.53,0,0,1,.32-1.79,3.54,3.54,0,0,1,2.75-2.33l2.52-.43a3.91,3.91,0,0,1,.59,0,3.51,3.51,0,0,1,3.47,2.93L37,27.46a4.18,4.18,0,0,1,0,.61,3.52,3.52,0,0,1-2.93,3.45l-2.52.43a3.49,3.49,0,0,1-2.6-.58,3.56,3.56,0,0,1-1.45-2.3l-.33-1.93a2.19,2.19,0,0,0-2.15-1.82,2.05,2.05,0,0,0-.65.1Zm-2,.1a1.06,1.06,0,0,1-1,.75.81.81,0,0,1-.31-.06l-6.41-2A1,1,0,0,1,12,24l-.62-5.84-.06-.44-1.9.19.7,6.68a2.29,2.29,0,0,0,1.58,1.93l.1,0-.41,2.49A3.56,3.56,0,0,1,10,31.34a3.49,3.49,0,0,1-2.63.6l-2.52-.43A3.52,3.52,0,0,1,2,27.45L3.85,16.3A3.56,3.56,0,0,1,5.29,14a3.46,3.46,0,0,1,2-.65,4.38,4.38,0,0,1,.59,0l2.52.44a3.43,3.43,0,0,1,2.28,1.43,3.08,3.08,0,0,1,.47.9s.26,1.13.32,1.79l.44,4.16a1.42,1.42,0,0,0,1,1.21l4.56,1.42.25.08a1.06,1.06,0,0,1,.74,1A1.11,1.11,0,0,1,20.43,26.15Z"/></g></g></svg>