<svg xmlns="http://www.w3.org/2000/svg" viewBox="0 0 24.98 24.98">
      <path class="cls-1" d="M18.4,25H6.58A6.59,6.59,0,0,1,0,18.4V6.58A6.59,6.59,0,0,1,6.58,0H18.4A6.59,6.59,0,0,1,25,6.58V18.4A6.59,6.59,0,0,1,18.4,25ZM6.58,1.29A5.3,5.3,0,0,0,1.29,6.58V18.4a5.3,5.3,0,0,0,5.29,5.29H18.4a5.3,5.3,0,0,0,5.29-5.29V6.58A5.3,5.3,0,0,0,18.4,1.29Z"
      />
      <path class="cls-1" d="M19.58,14.11a10,10,0,0,0-.84-.93c-.14-.15-.3-.3-.35-.37h0l0-.05a20.27,20.27,0,0,0,2.46-4.26,1,1,0,0,0-1.06-1.3H17.94A1.29,1.29,0,0,0,16.66,8a16.49,16.49,0,0,1-2.13,3.35v-3c0-.34,0-1.25-1.07-1.25h-3a.94.94,0,0,0-1,.93,1.26,1.26,0,0,0,.36.84,1.27,1.27,0,0,1,.33,1v2.28A13.1,13.1,0,0,1,8.08,8.16,1.34,1.34,0,0,0,6.66,7.09H4.79A1.06,1.06,0,0,0,3.7,8.16c0,.58.55,3,3,6.27a7.71,7.71,0,0,0,5.89,3.46c.65,0,2,0,2-1.27V15.14A4.92,4.92,0,0,1,15.7,16c.41.4.69.71.92,1,.47.53.81.91,1.53.91h2.1a1,1,0,0,0,1-1.07C21.28,16.4,21.09,15.71,19.58,14.11Zm-1.43,2.55c-.14,0-.17,0-.61-.49-.23-.25-.54-.6-1-1-1.16-1.15-1.75-1.31-2.2-1.31s-1,.37-1,1.19V16.6a3.17,3.17,0,0,1-.77.06,6.51,6.51,0,0,1-4.9-3A14.4,14.4,0,0,1,5,8.32H6.82a1.37,1.37,0,0,1,.1.23c.71,2.07,2.34,5.14,3.61,5.14.89,0,.89-.93.89-1.33V9.81A2.5,2.5,0,0,0,11,8.32H13.3V11.8c0,1,.61,1.16.88,1.16a1.79,1.79,0,0,0,1.27-.77,17.36,17.36,0,0,0,2.34-3.66l0-.09H19.6A24.82,24.82,0,0,1,17.39,12l0,0a1.12,1.12,0,0,0,.05,1.52c.1.13.25.27.43.46a9.25,9.25,0,0,1,.76.83l0,.05A7,7,0,0,1,20,16.66Z"
      />
</svg>